<svg xmlns="http://www.w3.org/2000/svg" width="1312" height="864" viewBox="0 0 1312 864" version="1.1"><path d="" stroke="none" fill="#b00cd4" fill-rule="evenodd"/><path d="M 358.500 1.097 C 326.828 5.599, 304.601 20.128, 291.678 44.777 C 284.480 58.505, 280.787 72.570, 279.015 93 C 277.658 108.641, 277.691 303.256, 279.054 321.500 C 281.573 355.234, 290.114 377.424, 306.875 393.782 C 322.680 409.207, 350.781 417.218, 383.500 415.626 C 439.098 412.921, 468.362 385.558, 475.075 330 C 475.706 324.775, 476.285 310.930, 476.361 299.234 L 476.500 277.967 437.500 277.958 L 398.500 277.948 397.931 304.724 C 397.342 332.415, 396.868 335.694, 392.486 342.380 C 389.669 346.680, 382.864 349.288, 375.658 348.829 C 365.314 348.171, 360.469 343.122, 358.043 330.475 C 357.210 326.132, 356.979 291.449, 357.198 203.500 C 357.482 89.557, 357.605 82.268, 359.298 78.514 C 362.923 70.475, 368.250 67, 376.948 67 C 387.112 67, 393.470 71.989, 396.063 82 C 396.722 84.540, 397.412 96.952, 397.650 110.500 L 398.071 134.500 436.638 134.500 L 475.205 134.500 475.093 110.792 C 474.969 84.692, 473.257 70.577, 468.497 56.396 C 455.805 18.587, 425.063 -0.318, 377 0.128 C 370.125 0.192, 361.800 0.628, 358.500 1.097 M 569.500 1.515 C 529.926 7.932, 503.766 30.201, 493.158 66.500 C 487.279 86.616, 487.500 81.140, 487.500 207 C 487.500 328.636, 487.519 329.221, 492.093 347.500 C 501.444 384.869, 523.676 406.434, 560.136 413.501 C 578.921 417.142, 605.966 416.457, 624.311 411.877 C 656.661 403.799, 677.158 385.225, 687.329 354.767 C 694.954 331.937, 695.156 327.717, 694.702 201 C 694.274 81.872, 694.499 87.097, 688.955 67.339 C 679.317 32.994, 656.044 10.913, 621 2.865 C 609.402 0.202, 582.022 -0.516, 569.500 1.515 M 965.500 1.514 C 941.690 5.429, 925.268 13.571, 911.351 28.359 C 893.931 46.870, 886.173 67.721, 883.922 102.079 C 883.207 113.005, 882.984 153.406, 883.268 220.579 C 883.648 310.546, 883.899 323.711, 885.403 332.822 C 892.441 375.460, 910.679 399.428, 944.479 410.462 C 971.241 419.198, 1014.756 417.114, 1038.873 405.942 C 1065.465 393.624, 1080.278 373.350, 1088.148 338.500 L 1090.407 328.500 1090.760 213.500 C 1091.074 111.433, 1090.931 97.221, 1089.489 87.127 C 1085.585 59.805, 1076.800 40.693, 1061.365 25.939 C 1050.138 15.208, 1041.646 10.170, 1027.004 5.555 C 1010.009 0.198, 983.921 -1.516, 965.500 1.514 M 214 24.981 L 214 44 107 44 L 0 44 0 69.500 L 0 95 107 95 L 214 95 214 114 L 214 133 236.507 133 L 259.015 133 258.757 69.750 L 258.500 6.500 236.250 6.231 L 214 5.962 214 24.981 M 710 208.006 L 710 410.011 793.750 409.756 L 877.500 409.500 880.172 383.500 C 881.642 369.200, 883.158 353.788, 883.541 349.250 L 884.237 341 836.118 341 L 788 341 788 173.500 L 788 6 749 6 L 710 6 710 208.006 M 1105 207.932 L 1105 410 1143.500 410 L 1182 410 1182 322.500 L 1182 235 1192.057 235 C 1212.251 235, 1218.425 238.751, 1222.601 253.557 C 1224.041 258.662, 1224.383 267.964, 1225.031 319.500 C 1225.712 373.753, 1226.834 398.992, 1228.910 406.758 L 1229.643 409.500 1266.960 409.762 L 1304.276 410.025 1303.574 403.262 C 1303.188 399.543, 1302.496 367.025, 1302.036 331 C 1301.212 266.469, 1300.819 259.182, 1297.369 244.500 C 1293.122 226.431, 1283.292 212.891, 1269.089 205.546 L 1265.689 203.788 1270.871 200.796 C 1283.028 193.777, 1292.165 182.587, 1297.650 168 C 1303.554 152.300, 1304.491 144.796, 1304.456 113.500 C 1304.431 90.538, 1304.099 83.881, 1302.613 76.500 C 1294.634 36.867, 1276.779 18.338, 1237.408 8.831 C 1228.896 6.776, 1225.752 6.662, 1166.750 6.272 L 1105 5.864 1105 207.932 M 582.791 67.988 C 575.733 70.116, 570.447 76.483, 567.312 86.631 C 565.607 92.154, 565.500 99.308, 565.500 208 L 565.500 323.500 567.710 330.523 C 571.865 343.728, 579.771 349.637, 592.207 348.830 C 604.454 348.036, 611.534 341.742, 614.411 329.092 C 615.813 322.926, 615.998 308.738, 615.983 208.303 C 615.964 85.169, 615.985 85.689, 610.627 77.201 C 607.595 72.398, 603.866 69.605, 598.500 68.119 C 593.925 66.852, 586.759 66.792, 582.791 67.988 M 978.921 68.306 C 970.587 71.428, 965.908 77.509, 963.518 88.323 C 962.110 94.691, 961.963 108.575, 962.216 211.500 L 962.500 327.500 964.863 333.361 C 969.156 344.007, 976.628 349.025, 988.116 348.978 C 997.649 348.939, 1004.879 344.054, 1008.917 334.923 C 1012.851 326.025, 1013.130 316.425, 1012.785 201.500 C 1012.482 100.360, 1012.315 91.028, 1010.711 85.636 C 1008.397 77.861, 1004.458 72.476, 999.186 69.882 C 993.823 67.244, 983.831 66.466, 978.921 68.306 M 1182.639 70.635 C 1182.325 72.211, 1182.165 95.775, 1182.284 123 L 1182.500 172.500 1193.500 172.311 C 1210.289 172.024, 1217.649 168.570, 1222.380 158.758 C 1226.432 150.356, 1227.186 142.791, 1226.801 114.403 C 1226.412 85.747, 1225.879 82.915, 1219.602 76.162 C 1213.857 69.981, 1209.954 68.672, 1195.855 68.196 L 1183.209 67.770 1182.639 70.635 M 0 167.500 L 0 193 57.500 193 L 115 193 115 209 L 115 225 57.500 225 L 0 225 0 250.504 L 0 276.008 129.250 275.754 L 258.500 275.500 258.500 250.500 L 258.500 225.500 208.750 225.241 L 159 224.981 159 209 L 159 193.019 208.750 192.759 L 258.500 192.500 258.767 167.250 L 259.034 142 129.517 142 L 0 142 0 167.500 M 0.241 343.746 L 0.500 397.500 19 400.183 C 29.175 401.658, 38.956 402.895, 40.736 402.933 L 43.972 403 44.236 371.999 C 44.381 354.949, 44.837 340.999, 45.250 340.999 C 45.663 341, 61.300 341, 80 341 L 114 341 114 367.500 L 114 394 136 394 L 158 394 158 367.500 L 158 341 186 341 L 214 341 214 369 L 214 397 236.509 397 L 259.018 397 258.759 343.750 L 258.500 290.500 129.241 290.246 L -0.017 289.992 0.241 343.746 M 2.248 642.663 L 2.500 857.442 37.500 857.234 C 56.750 857.120, 75.314 857.021, 78.753 857.013 L 85.006 857 84.923 835.250 C 84.877 823.288, 84.876 785.487, 84.920 751.250 L 85 689 101.280 689 C 119.501 689, 137.751 687.065, 149 683.941 C 157.851 681.483, 170.902 675.540, 177.661 670.889 C 193.648 659.890, 206.150 640.189, 211.860 617 C 216.137 599.631, 216.500 594.861, 216.500 556 C 216.500 524.050, 216.233 517.094, 214.698 509 C 206.276 464.615, 184.574 440.808, 143.432 430.825 C 134.826 428.737, 132.082 428.644, 68.248 428.270 L 1.995 427.883 2.248 642.663 M 228.437 597.250 C 228.915 767.195, 229.051 773.604, 232.538 790.180 C 241.138 831.063, 266.945 855.160, 308.996 861.572 C 320.407 863.312, 350.453 863.547, 361.023 861.980 C 404.153 855.582, 430.569 833.298, 440.524 794.914 C 445.599 775.346, 445.315 785.999, 445.703 600.750 L 446.065 428 404.282 428 L 362.500 428 362.785 591.250 C 362.974 699.194, 362.719 757.828, 362.032 764.323 C 361.437 769.944, 360.087 776.251, 358.877 779.065 C 355.101 787.842, 347.287 792.980, 337.693 792.994 C 325.503 793.012, 317.637 787.031, 313.803 774.829 L 311.500 767.500 311.500 597.750 L 311.500 428 269.730 428 L 227.961 428 228.437 597.250 M 463 642.455 L 463 856.909 466.250 857.503 C 468.038 857.830, 486.600 857.963, 507.500 857.798 L 545.500 857.500 545.755 764.105 L 546.010 670.709 558.531 671.250 C 569.435 671.721, 571.760 672.137, 576.528 674.470 C 580.662 676.493, 582.652 678.257, 584.656 681.677 C 589.994 690.784, 590.146 692.654, 591.028 760 C 591.804 819.245, 592.824 842.419, 595.129 853.164 L 596.144 857.897 635.822 857.699 C 663.423 857.560, 675.442 857.173, 675.309 856.427 C 673.979 848.957, 672.998 813.861, 672.991 773.517 C 672.978 700.048, 671.102 681.948, 661.542 663.083 C 658.249 656.584, 647.189 645.333, 640.158 641.328 L 634.815 638.285 640.158 635.025 C 652.660 627.396, 659.267 619.914, 666.060 605.694 C 674.318 588.408, 676.422 573.217, 675.708 536.061 C 675.140 506.501, 674.455 501.271, 669.014 485 C 658.047 452.202, 632.336 433.604, 591.697 429.072 C 585.925 428.429, 558.269 428, 522.539 428 L 463 428 463 642.455 M 700.755 642.871 L 701.009 857.857 741.755 857.679 L 782.500 857.500 782.756 773.250 L 783.011 689 799.466 689 C 839.866 689, 865.059 681.736, 883.457 664.783 C 906.904 643.179, 915.957 612.892, 915.974 556 C 915.984 523.212, 913.036 501.412, 906.313 484.559 C 894.484 454.905, 874.505 438.306, 841.500 430.712 C 832.987 428.754, 828.929 428.621, 766.500 428.263 L 700.500 427.885 700.755 642.871 M 927.248 642.750 L 927.500 857.500 1015.667 857.500 C 1064.159 857.500, 1104.062 857.272, 1104.340 856.993 C 1104.753 856.581, 1112 789.432, 1112 786.024 C 1112 785.366, 1094.287 784.929, 1060.750 784.759 L 1009.500 784.500 1009.658 606.250 L 1009.816 428 968.406 428 L 926.995 428 927.248 642.750 M 1128 642.827 L 1128 857.655 1212.750 857.302 C 1259.362 857.109, 1298.710 856.961, 1300.189 856.975 C 1302.599 856.997, 1302.938 856.560, 1303.463 852.750 C 1309.873 806.204, 1311.994 789.945, 1311.997 787.317 L 1312 784.134 1269.250 784.087 C 1245.737 784.061, 1222.787 784.030, 1218.250 784.020 L 1210 784 1210 726 L 1210 668 1254 668 L 1298 668 1298 631.500 L 1298 595 1254 595 L 1210 595 1210 548 L 1210 501 1256 501 L 1302 501 1302 464.500 L 1302 428 1215 428 L 1128 428 1128 642.827 M 85 557.286 L 85 621.201 97.750 620.810 C 113.079 620.340, 118.771 618.339, 125.043 611.214 C 132.518 602.721, 135 588.330, 135 553.466 C 135 518.203, 131.828 505.784, 120.989 498.611 C 115.810 495.184, 110.686 494.152, 96.750 493.728 L 85 493.371 85 557.286 M 546 549.243 L 546 605.206 558.250 604.735 C 572.761 604.177, 576.796 603.082, 582.143 598.252 C 591.502 589.797, 593.388 581.321, 593.438 547.500 C 593.470 525.610, 593.195 520.472, 591.699 515 C 589.424 506.676, 586.134 501.745, 580.772 498.621 C 575.024 495.272, 569.532 494.141, 556.750 493.673 L 546 493.280 546 549.243 M 783 557.323 L 783 621.196 796.250 620.848 C 808.361 620.530, 809.991 620.259, 815.208 617.697 C 824.970 612.903, 829.940 604.194, 832.109 588.080 C 832.728 583.478, 833.001 568.019, 832.773 550.389 C 832.419 522.916, 832.211 519.966, 830.199 513.897 C 827.253 505.009, 821.747 498.797, 814.369 496.037 C 809.980 494.395, 806.077 493.901, 795.902 493.702 L 783 493.449 783 557.323" stroke="none" fill="#ac0cd4" fill-rule="evenodd"/></svg>